<?xml version="1.0" standalone="no"?><!DOCTYPE svg PUBLIC "-//W3C//DTD SVG 1.1//EN" "http://www.w3.org/Graphics/SVG/1.1/DTD/svg11.dtd"><svg t="1662088770339" class="icon" viewBox="0 0 1024 1024" version="1.1" xmlns="http://www.w3.org/2000/svg" p-id="22254" xmlns:xlink="http://www.w3.org/1999/xlink" width="200" height="200"><path d="M645.6 304.8h70.4c-16 96-99.2 170.4-199.2 172.8H512c-138.4 0-254.4 103.2-272.8 236l-0.8 4.8h-69.6C186.4 545.6 330.4 411.2 506.4 408h5.6c63.2 0 116.8-41.6 132.8-99.2l0.8-4h70.4-70.4z m314.4 0v413.6H451.2c11.2-19.2 32.8-32.8 56.8-34.4h4c214.4 0 390.4-164 411.2-372.8l0.8-6.4h36z m-174.4 0h69.6C837.6 477.6 693.6 612 517.6 616H512c-63.2 0-116.8 41.6-132.8 99.2l-0.8 3.2h-70.4c16-96 99.2-170.4 199.2-172.8h4.8c138.4 0 254.4-103.2 272.8-236.8l0.8-4h69.6-69.6zM64 304.8h508c-12 20-34.4 34.4-60 34.4-214.4 0-390.4 164-411.2 372.8l-0.8 6.4H64V304.8h508H64z" p-id="22255"></path></svg>